<?xml version="1.0" encoding="UTF-8" standalone="no"?>
<svg width="69px" height="40px" viewBox="0 0 69 40" version="1.1" xmlns="http://www.w3.org/2000/svg" xmlns:xlink="http://www.w3.org/1999/xlink">
    <!-- Generator: Sketch 47.1 (45422) - http://www.bohemiancoding.com/sketch -->
    <title>Page 1</title>
    <desc>Created with Sketch.</desc>
    <defs></defs>
    <g id="Page-1" stroke="none" stroke-width="1" fill="none" fill-rule="evenodd">
        <g fill="#35ACB3">
            <path d="M2.0711722,4.14527152 C3.21513359,4.14527152 4.14143861,3.22315232 4.14143861,2.08566887 C4.14143861,0.948980132 3.21513359,0.0263311258 2.0711722,0.0263311258 C0.928010039,0.0263311258 0.000905791506,0.948980132 0.000905791506,2.08566887 C0.000905791506,3.22315232 0.928010039,4.14527152 2.0711722,4.14527152" id="Fill-1"></path>
            <path d="M36.9148668,16.5725828 C36.9148668,14.2149669 38.8386081,12.302649 41.211249,12.302649 C43.5814923,12.302649 45.5052336,14.2149669 45.5052336,16.5725828 C45.5052336,18.9309934 43.5814923,20.8422517 41.211249,20.8422517 C38.8386081,20.8422517 36.9148668,18.9309934 36.9148668,16.5725828 M32.7738012,16.5725828 C32.7738012,21.2051656 36.5512181,24.961457 41.211249,24.961457 C45.8694151,24.961457 49.6462992,21.2051656 49.6462992,16.5725828 C49.6462992,11.9397351 45.8694151,8.18450331 41.211249,8.18450331 C36.5512181,8.18450331 32.7738012,11.9397351 32.7738012,16.5725828" id="Fill-3"></path>
            <path d="M56.0078861,16.5725828 C56.0078861,14.2149669 57.9308282,12.302649 60.3026699,12.302649 C62.6745116,12.302649 64.5974537,14.2149669 64.5974537,16.5725828 C64.5974537,18.9309934 62.6745116,20.8422517 60.3026699,20.8422517 C57.9308282,20.8422517 56.0078861,18.9309934 56.0078861,16.5725828 M51.8660212,16.5725828 C51.8660212,21.2051656 55.6437046,24.961457 60.3026699,24.961457 C64.9611023,24.961457 68.7393185,21.2051656 68.7393185,16.5725828 C68.7393185,11.9397351 64.9611023,8.18450331 60.3026699,8.18450331 C55.6437046,8.18450331 51.8660212,11.9397351 51.8660212,16.5725828" id="Fill-5"></path>
            <path d="M4.14133205,7.27131126 C4.14133205,7.27131126 4.07073359,5.73965563 2.07106564,5.73965563 C0.072996139,5.73965563 0.00106563707,7.27131126 0.00106563707,7.27131126 L0.00106563707,23.5046887 C0.00106563707,23.5046887 -0.111891892,24.9444238 2.07106564,24.9444238 C4.25562162,24.9444238 4.14133205,23.5046887 4.14133205,23.5046887 L4.14133205,7.27131126 Z" id="Fill-8"></path>
            <path d="M29.9536193,1.53250331 C29.9536193,1.53250331 29.8814224,5.29801325e-05 27.8820208,5.29801325e-05 C25.8836849,5.29801325e-05 25.8109552,1.53250331 25.8109552,1.53250331 L25.8109552,23.5046887 C25.8109552,23.5046887 25.6987969,24.9444238 27.8820208,24.9444238 C30.0663104,24.9444238 29.9536193,23.5046887 29.9536193,23.5046887 L29.9536193,1.53250331 Z" id="Fill-10"></path>
            <path d="M15.2410077,13.218649 C11.7070888,13.218649 11.7070888,16.5725563 11.7070888,16.5725563 L15.2423398,16.5725563 C15.2575251,15.8909669 15.8156525,15.3410331 16.5048533,15.3410331 C17.1945869,15.3410331 17.7524479,15.8909669 17.7655019,16.5725563 L18.4315251,16.5725563 C18.4315251,16.5725563 18.4315251,13.218649 15.2410077,13.218649" id="Fill-12"></path>
            <path d="M18.7495911,21.8354172 C17.6445255,21.3689272 16.3210042,21.006543 14.7345371,20.833298 C14.7161548,20.8309139 14.6991046,20.8272053 14.6812552,20.825351 C14.3463788,20.7980662 14.0224251,20.7352848 13.7112591,20.6354172 C10.4674598,19.7135629 10.7304058,16.473298 10.7304058,16.473298 C10.7304058,16.473298 10.7290737,16.4825695 10.7399965,16.5011126 C10.7786259,14.1882649 12.6640042,12.3228344 14.9958846,12.3042914 C15.0347803,12.3056159 15.0571587,12.3042914 15.0590236,12.3034967 C17.4175448,12.3183311 19.3253015,14.2232318 19.3253015,16.5726358 C19.3253015,17.4870728 18.9400737,19.0939603 17.3914367,20.1093245 C18.8502938,20.5193907 20.4189116,21.1946225 21.1856375,21.8976689 C22.5403286,20.5795232 23.4676992,18.2687947 23.4676992,16.5726358 C23.4676992,15.0136954 23.0382475,13.5546225 22.2928344,12.3034967 L22.4199116,12.3034967 C22.4199116,12.3034967 23.9613556,12.2319735 23.9613556,10.2449536 C23.9613556,8.25660927 22.4199116,8.1861457 22.4199116,8.1861457 L15.0726104,8.1861457 C15.0590236,8.1861457 15.0449039,8.18455629 15.0310506,8.18455629 L15.015066,8.18455629 C15.0065409,8.18455629 14.9988151,8.1861457 14.9873595,8.1861457 C10.3491741,8.20892715 6.59440193,11.9540927 6.59440193,16.5726358 C6.59440193,19.1691921 7.78152162,21.489457 9.64558726,23.0287947 L9.6439888,23.0287947 C9.64691931,23.0311788 10.1744097,23.5840265 11.3721857,24.1334305 C11.8818266,24.3771391 12.41651,24.5697219 12.974371,24.7093245 C13.5889772,24.8778013 14.2909656,25.0221722 15.0979193,25.1138278 C15.116568,25.115947 15.1309541,25.1180662 15.1480042,25.1199205 C18.1216645,25.1951523 20.6898498,27.6158146 20.6898498,30.5895894 C20.6898498,33.6110464 18.2271625,36.0603179 15.1871664,36.0603179 C12.1490351,36.0603179 9.68581506,33.6110464 9.68581506,30.5895894 C9.68581506,30.0836291 9.76040965,29.5948874 9.88988456,29.1291921 L9.88349073,29.1313113 C9.88349073,29.1313113 9.88908533,29.1183311 9.89761042,29.1005828 C9.9343749,28.9710464 9.97593475,28.8446887 10.0228228,28.7204503 C10.1533633,28.1702517 10.1917263,27.1901192 9.08586139,26.5397881 C7.55507375,25.6409801 6.46945598,27.1413775 6.22808919,27.8330331 C5.95848301,28.7048212 5.81408919,29.630649 5.81408919,30.5895894 C5.81408919,35.7874702 10.0507958,39.9999205 15.2777456,39.9999205 C20.5052282,39.9999205 24.7416683,35.7874702 24.7416683,30.5895894 C24.7416683,26.6118411 22.2584676,23.2129007 18.7495911,21.8354172" id="Fill-14"></path>
        </g>
    </g>
</svg>