<?xml version="1.0" encoding="UTF-8" standalone="no"?>
<svg width="514px" height="261px" viewBox="0 0 514 261" version="1.1" xmlns="http://www.w3.org/2000/svg" xmlns:xlink="http://www.w3.org/1999/xlink">
    <!-- Generator: Sketch 47.1 (45422) - http://www.bohemiancoding.com/sketch -->
    <title>Bkg</title>
    <desc>Created with Sketch.</desc>
    <defs></defs>
    <g id="Page-1" stroke="none" stroke-width="1" fill="none" fill-rule="evenodd">
        <g id="503" transform="translate(-433.000000, -763.000000)">
            <g id="Bkg" transform="translate(433.000000, 763.000000)">
                <g id="Waves">
                    <g id="Group-3">
                        <g id="Group-2" transform="translate(432.000000, 15.000000)">
                            <path d="M56.0724292,55.1632008 C52.2608112,55.1632008 49.1623169,52.0766423 49.1623169,48.2858423 L49.1623169,7.47834792 C49.1623169,3.67929509 46.0693506,0.600989434 42.2522045,0.600989434 C38.4378225,0.600989434 35.3420921,3.67929509 35.3420921,7.47834792 L35.3420921,48.2858423 C35.3420921,59.6637442 44.6431034,68.9179177 56.0724292,68.9179177 L60.7243169,68.9179177 C64.5359348,68.9179177 67.6344292,72.0044762 67.6344292,75.7952762 L67.6344292,170.612042 C67.6344292,174.402842 64.5359348,177.489401 60.7243169,177.489401 L26.170991,177.489401 C14.7389011,177.489401 5.44065393,186.743574 5.44065393,198.121476 L5.44065393,252.748197 L19.2608787,252.748197 L19.2608787,198.121476 C19.2608787,194.327925 22.359373,191.244118 26.170991,191.244118 L60.7243169,191.244118 C72.1564067,191.244118 81.4546539,181.989944 81.4546539,170.612042 L81.4546539,75.7952762 C81.4546539,64.4173743 72.1564067,55.1632008 60.7243169,55.1632008 L56.0724292,55.1632008 Z" id="Fill-11" fill="#35ACB3"></path>
                            <path d="M40.684991,13.8910721 C40.684991,16.9446192 38.1973506,19.4204683 35.1292607,19.4204683 C32.0611708,19.4204683 29.5707663,16.9446192 29.5707663,13.8910721 C29.5707663,10.8375249 32.0611708,8.36167585 35.1292607,8.36167585 C38.1973506,8.36167585 40.684991,10.8375249 40.684991,13.8910721" id="Fill-89" fill="#83CCD8"></path>
                            <path d="M40.684991,37.0201789 C40.684991,40.073726 38.1973506,42.5495751 35.1292607,42.5495751 C32.0611708,42.5495751 29.5707663,40.073726 29.5707663,37.0201789 C29.5707663,33.9666317 32.0611708,31.4907826 35.1292607,31.4907826 C38.1973506,31.4907826 40.684991,33.9666317 40.684991,37.0201789" id="Fill-91" fill="#83CCD8"></path>
                            <path d="M59.1291865,68.670883 C59.1291865,71.7244302 56.6443101,74.2002792 53.5734562,74.2002792 C50.5053663,74.2002792 48.0177258,71.7244302 48.0177258,68.670883 C48.0177258,65.6173358 50.5053663,63.1414868 53.5734562,63.1414868 C56.6443101,63.1414868 59.1291865,65.6173358 59.1291865,68.670883" id="Fill-95" fill="#83CCD8"></path>
                            <path d="M72.4148449,83.2759166 C72.4148449,86.3294638 69.9272045,88.8053128 66.8563506,88.8053128 C63.7910247,88.8053128 61.3006202,86.3294638 61.3006202,83.2759166 C61.3006202,80.2223694 63.7910247,77.7465204 66.8563506,77.7465204 C69.9272045,77.7465204 72.4148449,80.2223694 72.4148449,83.2759166" id="Fill-97" fill="#83CCD8"></path>
                            <path d="M72.4148449,106.403648 C72.4148449,109.457195 69.9272045,111.933044 66.8563506,111.933044 C63.7910247,111.933044 61.3006202,109.457195 61.3006202,106.403648 C61.3006202,103.350101 63.7910247,100.874252 66.8563506,100.874252 C69.9272045,100.874252 72.4148449,103.350101 72.4148449,106.403648" id="Fill-99" fill="#83CCD8"></path>
                            <path d="M72.4148449,129.531379 C72.4148449,132.584926 69.9272045,135.060775 66.8563506,135.060775 C63.7910247,135.060775 61.3006202,132.584926 61.3006202,129.531379 C61.3006202,126.477832 63.7910247,124.001983 66.8563506,124.001983 C69.9272045,124.001983 72.4148449,126.477832 72.4148449,129.531379" id="Fill-101" fill="#83CCD8"></path>
                            <path d="M72.4148449,152.659386 C72.4148449,155.712933 69.9272045,158.188782 66.8563506,158.188782 C63.7910247,158.188782 61.3006202,155.712933 61.3006202,152.659386 C61.3006202,149.605838 63.7910247,147.129989 66.8563506,147.129989 C69.9272045,147.129989 72.4148449,149.605838 72.4148449,152.659386" id="Fill-103" fill="#83CCD8"></path>
                            <path d="M72.4148449,175.788492 C72.4148449,178.84204 69.9272045,181.317889 66.8563506,181.317889 C63.7910247,181.317889 61.3006202,178.84204 61.3006202,175.788492 C61.3006202,172.734945 63.7910247,170.259096 66.8563506,170.259096 C69.9272045,170.259096 72.4148449,172.734945 72.4148449,175.788492" id="Fill-105" fill="#83CCD8"></path>
                            <path d="M50.647991,175.788492 C50.647991,178.84204 48.1603506,181.317889 45.0894966,181.317889 C42.0241708,181.317889 39.5337663,178.84204 39.5337663,175.788492 C39.5337663,172.734945 42.0241708,170.259096 45.0894966,170.259096 C48.1603506,170.259096 50.647991,172.734945 50.647991,175.788492" id="Fill-107" fill="#83CCD8"></path>
                            <path d="M28.8811371,177.850325 C28.8811371,180.903872 26.3934966,183.379721 23.3226427,183.379721 C20.2573169,183.379721 17.7669124,180.903872 17.7669124,177.850325 C17.7669124,174.796777 20.2573169,172.320928 23.3226427,172.320928 C26.3934966,172.320928 28.8811371,174.796777 28.8811371,177.850325" id="Fill-109" fill="#83CCD8"></path>
                            <path d="M11.9217865,192.208048 C11.9217865,195.261595 9.43414607,197.737445 6.36605618,197.737445 C3.29796629,197.737445 0.807561798,195.261595 0.807561798,192.208048 C0.807561798,189.154501 3.29796629,186.678652 6.36605618,186.678652 C9.43414607,186.678652 11.9217865,189.154501 11.9217865,192.208048" id="Fill-111" fill="#83CCD8"></path>
                            <path d="M40.684991,60.1479102 C40.684991,63.2014574 38.1973506,65.6773064 35.1292607,65.6773064 C32.0611708,65.6773064 29.5707663,63.2014574 29.5707663,60.1479102 C29.5707663,57.094363 32.0611708,54.618514 35.1292607,54.618514 C38.1973506,54.618514 40.684991,57.094363 40.684991,60.1479102" id="Fill-93" fill="#83CCD8"></path>
                        </g>
                        <g id="Group-8" transform="translate(370.000000, 0.000000)">
                            <path d="M14.429525,31.419978 L14.429525,19.1425794 C14.429525,16.2091875 17.578275,13.7344814 21.304525,13.7344814 L56.158025,13.7344814 C59.950275,13.7344814 63.033025,16.8134443 63.033025,20.6010355 L63.033025,85.7838598 C63.033025,89.5687044 59.950275,92.6504139 56.158025,92.6504139 L51.810275,92.6504139 C40.436275,92.6504139 31.185275,101.890049 31.185275,113.250076 L31.185275,270.790799 L44.935275,270.790799 L44.935275,113.250076 C44.935275,109.465231 48.018025,106.383522 51.810275,106.383522 L56.158025,106.383522 C67.532025,106.383522 76.783025,97.1438868 76.783025,85.7838598 L76.783025,20.6010355 C76.783025,9.24100845 67.532025,0.00137331081 56.158025,0.00137331081 L21.304525,0.00137331081 C9.930525,0.00137331081 0.679525,8.5873125 0.679525,19.1425794 L0.679525,31.419978 C0.679525,35.2130625 3.756775,38.2865321 7.554525,38.2865321 C11.352275,38.2865321 14.429525,35.2130625 14.429525,31.419978 Z" id="Fill-15" fill="#00666B"></path>
                            <path d="M66.864875,92.7523135 C66.864875,95.8010635 64.389875,98.273023 61.337375,98.273023 C58.284875,98.273023 55.807125,95.8010635 55.807125,92.7523135 C55.807125,89.7035635 58.284875,87.2316041 61.337375,87.2316041 C64.389875,87.2316041 66.864875,89.7035635 66.864875,92.7523135" id="Fill-17" fill="#33AFB3"></path>
                            <path d="M43.258875,98.273847 C43.258875,101.322597 40.786625,103.794556 37.731375,103.794556 C34.678875,103.794556 32.203875,101.322597 32.203875,98.273847 C32.203875,95.225097 34.678875,92.7531375 37.731375,92.7531375 C40.786625,92.7531375 43.258875,95.225097 43.258875,98.273847" id="Fill-19" fill="#33AFB3"></path>
                            <path d="M35.940575,120.720063 C35.940575,123.768813 33.468325,126.240772 30.413075,126.240772 C27.360575,126.240772 24.885575,123.768813 24.885575,120.720063 C24.885575,117.671313 27.360575,115.199353 30.413075,115.199353 C33.468325,115.199353 35.940575,117.671313 35.940575,120.720063" id="Fill-21" fill="#33AFB3"></path>
                            <path d="M35.940575,143.811735 C35.940575,146.860485 33.468325,149.332444 30.413075,149.332444 C27.360575,149.332444 24.885575,146.860485 24.885575,143.811735 C24.885575,140.762985 27.360575,138.291025 30.413075,138.291025 C33.468325,138.291025 35.940575,140.762985 35.940575,143.811735" id="Fill-23" fill="#33AFB3"></path>
                            <path d="M68.666675,44.9882889 C68.666675,48.0370389 66.194425,50.5089983 63.139175,50.5089983 C60.086675,50.5089983 57.611675,48.0370389 57.611675,44.9882889 C57.611675,41.9395389 60.086675,39.4675794 63.139175,39.4675794 C66.194425,39.4675794 68.666675,41.9395389 68.666675,44.9882889" id="Fill-25" fill="#33AFB3"></path>
                            <path d="M67.837,16.6112929 C67.837,19.6600429 65.36475,22.1320024 62.3095,22.1320024 C59.257,22.1320024 56.782,19.6600429 56.782,16.6112929 C56.782,13.5625429 59.257,11.0905834 62.3095,11.0905834 C65.36475,11.0905834 67.837,13.5625429 67.837,16.6112929" id="Fill-27" fill="#33AFB3"></path>
                            <path d="M44.86735,13.7723848 C44.86735,16.8211348 42.39235,19.2930943 39.33985,19.2930943 C36.28735,19.2930943 33.8096,16.8211348 33.8096,13.7723848 C33.8096,10.7236348 36.28735,8.25167534 39.33985,8.25167534 C42.39235,8.25167534 44.86735,10.7236348 44.86735,13.7723848" id="Fill-29" fill="#33AFB3"></path>
                            <path d="M20.23835,17.6747848 C20.23835,20.7235348 17.7661,23.1954943 14.71085,23.1954943 C11.65835,23.1954943 9.18335,20.7235348 9.18335,17.6747848 C9.18335,14.6260348 11.65835,12.1540753 14.71085,12.1540753 C17.7661,12.1540753 20.23835,14.6260348 20.23835,17.6747848" id="Fill-31" fill="#33AFB3"></path>
                            <path d="M68.666675,70.0322595 C68.666675,73.0810095 66.194425,75.5529689 63.139175,75.5529689 C60.086675,75.5529689 57.611675,73.0810095 57.611675,70.0322595 C57.611675,66.9835095 60.086675,64.51155 63.139175,64.51155 C66.194425,64.51155 68.666675,66.9835095 68.666675,70.0322595" id="Fill-33" fill="#33AFB3"></path>
                            <path d="M35.940575,166.903132 C35.940575,169.951882 33.468325,172.423842 30.413075,172.423842 C27.360575,172.423842 24.885575,169.951882 24.885575,166.903132 C24.885575,163.854382 27.360575,161.382423 30.413075,161.382423 C33.468325,161.382423 35.940575,163.854382 35.940575,166.903132" id="Fill-35" fill="#33AFB3"></path>
                            <path d="M35.940575,190.707186 C35.940575,193.755936 33.468325,196.227896 30.413075,196.227896 C27.360575,196.227896 24.885575,193.755936 24.885575,190.707186 C24.885575,187.658436 27.360575,185.186477 30.413075,185.186477 C33.468325,185.186477 35.940575,187.658436 35.940575,190.707186" id="Fill-35" fill="#33AFB3"></path>
                        </g>
                        <g id="Group-7" transform="translate(83.000000, 0.000000)">
                            <path d="M86.9347564,53.1931259 C86.9347564,56.9818936 83.8591923,60.0618128 80.0757821,60.0618128 L75.4610641,60.0618128 C64.1163205,60.0618128 54.884141,69.3070653 54.884141,80.6678734 L54.884141,271.790459 L68.6020897,271.790459 L68.6020897,80.6678734 C68.6020897,76.8818532 71.6776538,73.7991865 75.4610641,73.7991865 L80.0757821,73.7991865 C91.4232692,73.7991865 100.652705,64.5566815 100.652705,53.1931259 L100.652705,26.1744593 C100.652705,14.8109037 91.4232692,5.56839865 80.0757821,5.56839865 L7.77121795,5.56839865 C3.9850641,5.56839865 0.91224359,8.6428229 0.91224359,12.4370855 C0.91224359,16.2313481 3.9850641,19.3057724 7.77121795,19.3057724 L80.0757821,19.3057724 C83.8591923,19.3057724 86.9347564,22.3884391 86.9347564,26.1744593 L86.9347564,53.1931259 Z" id="Fill-13" fill="#00666B"></path>
                            <path d="M84.394741,7.93644714 C84.394741,10.9861441 86.8612282,13.4588714 89.9093564,13.4588714 C92.954741,13.4588714 95.4239718,10.9861441 95.4239718,7.93644714 C95.4239718,4.88675017 92.954741,2.4140229 89.9093564,2.4140229 C86.8612282,2.4140229 84.394741,4.88675017 84.394741,7.93644714" id="Fill-37" fill="#33AFB3"></path>
                            <path d="M95.3531872,28.1345077 C95.3531872,31.1842047 97.8196744,33.656932 100.867803,33.656932 C103.913187,33.656932 106.382418,31.1842047 106.382418,28.1345077 C106.382418,25.0848108 103.913187,22.6120835 100.867803,22.6120835 C97.8196744,22.6120835 95.3531872,25.0848108 95.3531872,28.1345077" id="Fill-39" fill="#33AFB3"></path>
                            <path d="M95.3531872,51.2333522 C95.3531872,54.2830492 97.8196744,56.7557764 100.867803,56.7557764 C103.913187,56.7557764 106.382418,54.2830492 106.382418,51.2333522 C106.382418,48.1836552 103.913187,45.7109279 100.867803,45.7109279 C97.8196744,45.7109279 95.3531872,48.1836552 95.3531872,51.2333522" id="Fill-41" fill="#33AFB3"></path>
                            <path d="M85.6622795,70.6305239 C85.6622795,73.6802209 88.1315103,76.1529481 91.1768949,76.1529481 C94.2222795,76.1529481 96.6942538,73.6802209 96.6942538,70.6305239 C96.6942538,67.5808269 94.2222795,65.1080997 91.1768949,65.1080997 C88.1315103,65.1080997 85.6622795,67.5808269 85.6622795,70.6305239" id="Fill-43" fill="#33AFB3"></path>
                            <path d="M62.1354487,5.59669764 C62.1354487,8.64639461 64.6019359,11.1191219 67.6500641,11.1191219 C70.6954487,11.1191219 73.1646795,8.64639461 73.1646795,5.59669764 C73.1646795,2.54700067 70.6954487,0.0742734007 67.6500641,0.0742734007 C64.6019359,0.0742734007 62.1354487,2.54700067 62.1354487,5.59669764" id="Fill-45" fill="#33AFB3"></path>
                            <path d="M38.2467385,5.59669764 C38.2467385,8.64639461 40.7132256,11.1191219 43.7613538,11.1191219 C46.8067385,11.1191219 49.2759692,8.64639461 49.2759692,5.59669764 C49.2759692,2.54700067 46.8067385,0.0742734007 43.7613538,0.0742734007 C40.7132256,0.0742734007 38.2467385,2.54700067 38.2467385,5.59669764" id="Fill-47" fill="#33AFB3"></path>
                            <path d="M14.3583026,5.59669764 C14.3583026,8.64639461 16.8247897,11.1191219 19.8729179,11.1191219 C22.9183026,11.1191219 25.3875333,8.64639461 25.3875333,5.59669764 C25.3875333,2.54700067 22.9183026,0.0742734007 19.8729179,0.0742734007 C16.8247897,0.0742734007 14.3583026,2.54700067 14.3583026,5.59669764" id="Fill-49" fill="#33AFB3"></path>
                            <path d="M63.8581487,78.5388552 C63.8581487,81.5885522 66.3273795,84.0612795 69.3727641,84.0612795 C72.4181487,84.0612795 74.8901231,81.5885522 74.8901231,78.5388552 C74.8901231,75.4891582 72.4181487,73.016431 69.3727641,73.016431 C66.3273795,73.016431 63.8581487,75.4891582 63.8581487,78.5388552" id="Fill-51" fill="#33AFB3"></path>
                            <path d="M69.3727641,107.160124 C72.4181487,107.160124 74.8901231,104.687397 74.8901231,101.6377 C74.8901231,98.5880027 72.4181487,96.1152754 69.3727641,96.1152754 C66.3273795,96.1152754 63.8581487,98.5880027 63.8581487,101.6377 C63.8581487,104.687397 66.3273795,107.160124 69.3727641,107.160124 Z" id="Fill-53" fill="#33AFB3"></path>
                            <path d="M63.8581487,124.736269 C63.8581487,127.785966 66.3273795,130.258694 69.3727641,130.258694 C72.4181487,130.258694 74.8901231,127.785966 74.8901231,124.736269 C74.8901231,121.686572 72.4181487,119.213845 69.3727641,119.213845 C66.3273795,119.213845 63.8581487,121.686572 63.8581487,124.736269" id="Fill-55" fill="#33AFB3"></path>
                            <path d="M63.8581487,150.733974 C63.8581487,153.783671 66.3273795,156.256399 69.3727641,156.256399 C72.4181487,156.256399 74.8901231,153.783671 74.8901231,150.733974 C74.8901231,147.684277 72.4181487,145.21155 69.3727641,145.21155 C66.3273795,145.21155 63.8581487,147.684277 63.8581487,150.733974" id="Fill-57" fill="#33AFB3"></path>
                            <path d="M63.8581487,173.629597 C63.8581487,176.679294 66.3273795,179.152022 69.3727641,179.152022 C72.4181487,179.152022 74.8901231,176.679294 74.8901231,173.629597 C74.8901231,170.5799 72.4181487,168.107173 69.3727641,168.107173 C66.3273795,168.107173 63.8581487,170.5799 63.8581487,173.629597" id="Fill-57" fill="#33AFB3"></path>
                            <path d="M63.8581487,196.52522 C63.8581487,199.574917 66.3273795,202.047644 69.3727641,202.047644 C72.4181487,202.047644 74.8901231,199.574917 74.8901231,196.52522 C74.8901231,193.475523 72.4181487,191.002796 69.3727641,191.002796 C66.3273795,191.002796 63.8581487,193.475523 63.8581487,196.52522" id="Fill-57" fill="#33AFB3"></path>
                        </g>
                        <g id="Group" transform="translate(0.000000, 14.000000)">
                            <path d="M165.959562,252.747647 L179.697186,252.747647 L179.697186,198.120926 C179.697186,186.743024 170.454512,177.488851 159.09075,177.488851 L124.746691,177.488851 C120.957854,177.488851 117.877879,174.402292 117.877879,170.611492 L117.877879,75.794726 C117.877879,64.4168242 108.635205,55.1626506 97.2714431,55.1626506 L20.6072599,55.1626506 C16.8184233,55.1626506 13.738448,52.078843 13.738448,48.2852921 L13.738448,7.47779774 C13.738448,3.67874491 10.6639678,0.600439245 6.86963614,0.600439245 C3.07530446,0.600439245 0.000824257426,3.67874491 0.000824257426,7.47779774 L0.000824257426,48.2852921 C0.000824257426,59.663194 9.24349752,68.9173675 20.6072599,68.9173675 L97.2714431,68.9173675 C101.06028,68.9173675 104.140255,72.003926 104.140255,75.794726 L104.140255,170.611492 C104.140255,181.989394 113.382928,191.243568 124.746691,191.243568 L159.09075,191.243568 C162.879587,191.243568 165.959562,194.330126 165.959562,198.120926 L165.959562,252.747647 Z" id="Fill-9" fill="#35ACB3"></path>
                            <path d="M7.97688861,33.7534336 C7.97688861,36.8069808 10.4469134,39.2828298 13.4994134,39.2828298 C16.5491658,39.2828298 19.0219381,36.8069808 19.0219381,33.7534336 C19.0219381,30.6998864 16.5491658,28.2240374 13.4994134,28.2240374 C10.4469134,28.2240374 7.97688861,30.6998864 7.97688861,33.7534336" id="Fill-59" fill="#83CCD8"></path>
                            <path d="M7.97688861,10.5423487 C7.97688861,13.5958958 10.4469134,16.0717449 13.4994134,16.0717449 C16.5491658,16.0717449 19.0219381,13.5958958 19.0219381,10.5423487 C19.0219381,7.48880151 16.5491658,5.01295245 13.4994134,5.01295245 C10.4469134,5.01295245 7.97688861,7.48880151 7.97688861,10.5423487" id="Fill-61" fill="#83CCD8"></path>
                            <path d="M85.9568614,55.39428 C85.9568614,58.4478272 88.4268861,60.9236762 91.4793861,60.9236762 C94.5291386,60.9236762 97.0019109,58.4478272 97.0019109,55.39428 C97.0019109,52.3407328 94.5291386,49.8648838 91.4793861,49.8648838 C88.4268861,49.8648838 85.9568614,52.3407328 85.9568614,55.39428" id="Fill-63" fill="#83CCD8"></path>
                            <path d="M62.0877401,55.39428 C62.0877401,58.4478272 64.5577649,60.9236762 67.6102649,60.9236762 C70.6600173,60.9236762 73.1327896,58.4478272 73.1327896,55.39428 C73.1327896,52.3407328 70.6600173,49.8648838 67.6102649,49.8648838 C64.5577649,49.8648838 62.0877401,52.3407328 62.0877401,55.39428" id="Fill-65" fill="#83CCD8"></path>
                            <path d="M38.2186188,55.39428 C38.2186188,58.4478272 40.6886436,60.9236762 43.7411436,60.9236762 C46.790896,60.9236762 49.2636683,58.4478272 49.2636683,55.39428 C49.2636683,52.3407328 46.790896,49.8648838 43.7411436,49.8648838 C40.6886436,49.8648838 38.2186188,52.3407328 38.2186188,55.39428" id="Fill-67" fill="#83CCD8"></path>
                            <path d="M14.3494975,54.3626762 C14.3494975,57.4162234 16.8195223,59.8920725 19.8720223,59.8920725 C22.9217748,59.8920725 25.394547,57.4162234 25.394547,54.3626762 C25.394547,51.3091291 22.9217748,48.83328 19.8720223,48.83328 C16.8195223,48.83328 14.3494975,51.3091291 14.3494975,54.3626762" id="Fill-69" fill="#83CCD8"></path>
                            <path d="M111.409656,66.4525223 C114.459408,66.4525223 116.932181,63.9766732 116.932181,60.923126 C116.932181,57.8695789 114.459408,55.3937298 111.409656,55.3937298 C108.357156,55.3937298 105.887131,57.8695789 105.887131,60.923126 C105.887131,63.9766732 108.357156,66.4525223 111.409656,66.4525223 Z" id="Fill-71" fill="#83CCD8"></path>
                            <path d="M113.126035,83.2759166 C113.126035,86.3294638 115.598807,88.8053128 118.648559,88.8053128 C121.698312,88.8053128 124.173832,86.3294638 124.173832,83.2759166 C124.173832,80.2223694 121.698312,77.7465204 118.648559,77.7465204 C115.598807,77.7465204 113.126035,80.2223694 113.126035,83.2759166" id="Fill-73" fill="#83CCD8"></path>
                            <path d="M113.126035,106.403648 C113.126035,109.457195 115.598807,111.933044 118.648559,111.933044 C121.698312,111.933044 124.173832,109.457195 124.173832,106.403648 C124.173832,103.350101 121.698312,100.874252 118.648559,100.874252 C115.598807,100.874252 113.126035,103.350101 113.126035,106.403648" id="Fill-75" fill="#83CCD8"></path>
                            <path d="M118.648559,135.060775 C121.698312,135.060775 124.173832,132.584926 124.173832,129.531379 C124.173832,126.477832 121.698312,124.001983 118.648559,124.001983 C115.598807,124.001983 113.126035,126.477832 113.126035,129.531379 C113.126035,132.584926 115.598807,135.060775 118.648559,135.060775 Z" id="Fill-77" fill="#83CCD8"></path>
                            <path d="M113.126035,152.659386 C113.126035,155.712933 115.598807,158.188782 118.648559,158.188782 C121.698312,158.188782 124.173832,155.712933 124.173832,152.659386 C124.173832,149.605838 121.698312,147.129989 118.648559,147.129989 C115.598807,147.129989 113.126035,149.605838 113.126035,152.659386" id="Fill-79" fill="#83CCD8"></path>
                            <path d="M113.126035,175.788492 C113.126035,178.84204 115.598807,181.317889 118.648559,181.317889 C121.698312,181.317889 124.173832,178.84204 124.173832,175.788492 C124.173832,172.734945 121.698312,170.259096 118.648559,170.259096 C115.598807,170.259096 113.126035,172.734945 113.126035,175.788492" id="Fill-81" fill="#83CCD8"></path>
                            <path d="M134.762792,175.788492 C134.762792,178.84204 137.235564,181.317889 140.285317,181.317889 C143.335069,181.317889 145.810589,178.84204 145.810589,175.788492 C145.810589,172.734945 143.335069,170.259096 140.285317,170.259096 C137.235564,170.259096 134.762792,172.734945 134.762792,175.788492" id="Fill-83" fill="#83CCD8"></path>
                            <path d="M156.39955,177.850325 C156.39955,180.903872 158.872322,183.379721 161.922074,183.379721 C164.971827,183.379721 167.447347,180.903872 167.447347,177.850325 C167.447347,174.796777 164.971827,172.320928 161.922074,172.320928 C158.872322,172.320928 156.39955,174.796777 156.39955,177.850325" id="Fill-85" fill="#83CCD8"></path>
                            <path d="M173.257812,192.208048 C173.257812,195.261595 175.727837,197.737445 178.780337,197.737445 C181.830089,197.737445 184.302861,195.261595 184.302861,192.208048 C184.302861,189.154501 181.830089,186.678652 178.780337,186.678652 C175.727837,186.678652 173.257812,189.154501 173.257812,192.208048" id="Fill-87" fill="#83CCD8"></path>
                        </g>
                        <g id="Group-10" transform="translate(216.000000, 22.000000)">
                            <path d="M138,175.72821 C138,170.682745 137.252862,165.805552 135.973629,161.112916 L136.037039,161.096632 L135.648307,159.978433 C135.118969,158.181716 134.501408,156.420281 133.803896,154.691415 L99.2646089,55.7633837 C104.428409,49.9009818 107.532754,42.5159839 107.532754,34.4714658 C107.532754,15.4322301 90.2824093,0 69.0013785,0 C47.7175907,0 30.4644891,15.4322301 30.4644891,34.4714658 C30.4644891,42.7873914 33.759065,50.416656 39.2426731,56.3713365 L4.49937069,153.953187 C3.66400959,155.931747 2.94995505,157.953733 2.34066527,160.019144 L1.95744681,161.096632 L2.02085706,161.134629 C0.749895115,165.819122 0,170.690887 0,175.72821 C0,181.441338 0.937368894,186.953624 2.56122266,192.205359 L2.48678454,192.205359 L22.4610129,262.877156 L22.5051244,262.877156 C26.2270303,282.80118 45.5368295,298 68.8607731,298 C92.0578963,298 111.287743,282.972167 115.158526,263.213702 L115.197123,263.213702 L135.515972,192.205359 L135.438777,192.205359 C137.062631,186.953624 138,181.441338 138,175.72821" id="Fill-1" fill="#35ACB3"></path>
                            <path d="M34.96,175.132308 C34.96,179.181793 31.6679872,182.467692 27.6013832,182.467692 C23.5347792,182.467692 20.24,179.181793 20.24,175.132308 C20.24,171.080066 23.5347792,167.796923 27.6013832,167.796923 C31.6679872,167.796923 34.96,171.080066 34.96,175.132308" id="Fill-3" fill="#CCE7ED"></path>
                            <path d="M117.76,175.132308 C117.76,179.181793 114.467987,182.467692 110.401383,182.467692 C106.334779,182.467692 103.04,179.181793 103.04,175.132308 C103.04,171.080066 106.334779,167.796923 110.401383,167.796923 C114.467987,167.796923 117.76,171.080066 117.76,175.132308" id="Fill-3" fill="#CCE7ED"></path>
                            <path d="M83.72,192.921 C83.72,185.658757 77.6552777,179.716923 70.2428393,179.716923 L67.7571607,179.716923 C60.3447223,179.716923 54.28,185.658757 54.28,192.921 L54.28,227.02977 C54.28,234.292012 60.3447223,240.233846 67.7571607,240.233846 L70.2428393,240.233846 C77.6552777,240.233846 83.72,234.292012 83.72,227.02977 L83.72,192.921 Z" id="Fill-7" fill="#006B6E"></path>
                        </g>
                        <g id="Group-5" transform="translate(372.000000, 179.000000)">
                            <path d="M19.9784,83.3769383 L19.9784,26.7167407 C19.9784,22.94 23.0464,19.8648889 26.8205053,19.8648889 L44.8316632,19.8648889 C48.6112421,19.8648889 51.6737684,16.798 51.6737684,13.013037 C51.6737684,9.22807407 48.6112421,6.16118519 44.8316632,6.16118519 L26.8205053,6.16118519 C15.5009263,6.16118519 6.29418947,15.381037 6.29418947,26.7167407 L6.29418947,83.3769383 L19.9784,83.3769383 Z" id="Fill-113" fill="#83CCD8"></path>
                            <path d="M41.8036211,6.26314074 C41.8036211,9.30536296 39.3404632,11.7720296 36.3025684,11.7720296 C33.2646737,11.7720296 30.7987789,9.30536296 30.7987789,6.26314074 C30.7987789,3.22091852 33.2646737,0.754251852 36.3025684,0.754251852 C39.3404632,0.754251852 41.8036211,3.22091852 41.8036211,6.26314074" id="Fill-133" fill="#CCE7ED"></path>
                            <path d="M18.3105684,11.7714815 C18.3105684,14.8137037 15.8501474,17.2803704 12.8095158,17.2803704 C9.77162105,17.2803704 7.30846316,14.8137037 7.30846316,11.7714815 C7.30846316,8.72925926 9.77162105,6.26259259 12.8095158,6.26259259 C15.8501474,6.26259259 18.3105684,8.72925926 18.3105684,11.7714815" id="Fill-135" fill="#CCE7ED"></path>
                            <path d="M11.0275579,34.1699111 C11.0275579,37.2121333 8.56713684,39.6788 5.52650526,39.6788 C2.48861053,39.6788 0.0254526316,37.2121333 0.0254526316,34.1699111 C0.0254526316,31.1276889 2.48861053,28.6610222 5.52650526,28.6610222 C8.56713684,28.6610222 11.0275579,31.1276889 11.0275579,34.1699111" id="Fill-137" fill="#CCE7ED"></path>
                        </g>
                        <g id="Group-4" transform="translate(191.000000, 110.000000)">
                            <path d="M14.1208281,151.375518 L14.1208281,75.1914699 C14.1208281,71.4033735 17.1888281,68.324 20.9629333,68.324 L25.5663018,68.324 C36.8831439,68.324 46.0926175,59.0803855 46.0926175,47.7215904 L46.0926175,6.9700241 C46.0926175,3.17643373 43.0300912,0.102554217 39.2505123,0.102554217 C35.4709333,0.102554217 32.408407,3.17643373 32.408407,6.9700241 L32.408407,47.7215904 C32.408407,51.5069398 29.340407,54.5890602 25.5663018,54.5890602 L20.9629333,54.5890602 C9.64335439,54.5890602 0.436617544,63.8299277 0.436617544,75.1914699 L0.436617544,151.375518 L14.1208281,151.375518 Z" id="Fill-115" fill="#83CCD8"></path>
                            <path d="M40.8050386,13.3765494 C40.8050386,16.425706 43.2654596,18.8979952 46.3060912,18.8979952 C49.343986,18.8979952 51.8071439,16.425706 51.8071439,13.3765494 C51.8071439,10.3273928 49.343986,7.85510361 46.3060912,7.85510361 C43.2654596,7.85510361 40.8050386,10.3273928 40.8050386,13.3765494" id="Fill-117" fill="#CCE7ED"></path>
                            <path d="M40.8050386,36.4710265 C40.8050386,39.5201831 43.2654596,41.9924723 46.3060912,41.9924723 C49.343986,41.9924723 51.8071439,39.5201831 51.8071439,36.4710265 C51.8071439,33.4218699 49.343986,30.9495807 46.3060912,30.9495807 C43.2654596,30.9495807 40.8050386,33.4218699 40.8050386,36.4710265" id="Fill-119" fill="#CCE7ED"></path>
                            <path d="M40.8050386,59.5657783 C40.8050386,62.6149349 43.2654596,65.0872241 46.3060912,65.0872241 C49.343986,65.0872241 51.8071439,62.6149349 51.8071439,59.5657783 C51.8071439,56.5166217 49.343986,54.0443325 46.3060912,54.0443325 C43.2654596,54.0443325 40.8050386,56.5166217 40.8050386,59.5657783" id="Fill-121" fill="#CCE7ED"></path>
                            <path d="M22.5396281,68.0762217 C22.5396281,71.1253783 25.002786,73.5976675 28.0434175,73.5976675 C31.0785754,73.5976675 33.5444702,71.1253783 33.5444702,68.0762217 C33.5444702,65.0270651 31.0785754,62.5547759 28.0434175,62.5547759 C25.002786,62.5547759 22.5396281,65.0270651 22.5396281,68.0762217" id="Fill-123" fill="#CCE7ED"></path>
                            <path d="M9.38745965,82.6602554 C9.38745965,85.709412 11.8506175,88.1817012 14.8885123,88.1817012 C17.926407,88.1817012 20.3923018,85.709412 20.3923018,82.6602554 C20.3923018,79.6110988 17.926407,77.1388096 14.8885123,77.1388096 C11.8506175,77.1388096 9.38745965,79.6110988 9.38745965,82.6602554" id="Fill-125" fill="#CCE7ED"></path>
                            <path d="M9.38745965,105.754733 C9.38745965,108.803889 11.8506175,111.276178 14.8885123,111.276178 C17.926407,111.276178 20.3923018,108.803889 20.3923018,105.754733 C20.3923018,102.705576 17.926407,100.233287 14.8885123,100.233287 C11.8506175,100.233287 9.38745965,102.705576 9.38745965,105.754733" id="Fill-127" fill="#CCE7ED"></path>
                        </g>
                    </g>
                </g>
            </g>
        </g>
    </g>
</svg>