<?xml version="1.0" encoding="UTF-8" standalone="no"?>
<svg width="1440px" height="1515px" viewBox="0 0 1440 1515" version="1.1" xmlns="http://www.w3.org/2000/svg" xmlns:xlink="http://www.w3.org/1999/xlink">
    <!-- Generator: Sketch 47.1 (45422) - http://www.bohemiancoding.com/sketch -->
    <title>Stars</title>
    <desc>Created with Sketch.</desc>
    <defs></defs>
    <g id="Page-1" stroke="none" stroke-width="1" fill="none" fill-rule="evenodd" opacity="0.5">
        <g id="Stars" fill="#83CCD8">
            <path d="M707.073609,982.423208 C707.073609,984.563039 705.336625,986.301195 703.195691,986.301195 C701.051085,986.301195 699.317774,984.563039 699.317774,982.423208 C699.317774,980.283378 701.051085,978.545222 703.195691,978.545222 C705.336625,978.545222 707.073609,980.283378 707.073609,982.423208" id="Fill-1"></path>
            <path d="M138.312388,751.036689 C138.312388,753.17652 136.576226,754.914676 134.436306,754.914676 C132.292715,754.914676 130.556553,753.17652 130.556553,751.036689 C130.556553,748.896859 132.292715,747.158703 134.436306,747.158703 C136.576226,747.158703 138.312388,748.896859 138.312388,751.036689" id="Fill-3"></path>
            <path d="M161.579892,470.52901 C161.579892,472.668841 159.84373,474.406997 157.70381,474.406997 C155.560219,474.406997 153.824057,472.668841 153.824057,470.52901 C153.824057,468.38918 155.560219,466.651024 157.70381,466.651024 C159.84373,466.651024 161.579892,468.38918 161.579892,470.52901" id="Fill-5"></path>
            <path d="M316.696589,310.238908 C316.696589,312.378738 314.959605,314.116894 312.818671,314.116894 C310.674066,314.116894 308.940754,312.378738 308.940754,310.238908 C308.940754,308.099077 310.674066,306.360922 312.818671,306.360922 C314.959605,306.360922 316.696589,308.099077 316.696589,310.238908" id="Fill-7"></path>
            <path d="M409.766607,431.749147 C409.766607,433.888977 408.030445,435.627133 405.886854,435.627133 C403.746934,435.627133 402.010772,433.888977 402.010772,431.749147 C402.010772,429.609316 403.746934,427.87116 405.886854,427.87116 C408.030445,427.87116 409.766607,429.609316 409.766607,431.749147" id="Fill-9"></path>
            <path d="M1398.63555,943.643345 C1398.63555,945.783175 1396.89572,947.521331 1394.75579,947.521331 C1392.61587,947.521331 1390.87971,945.783175 1390.87971,943.643345 C1390.87971,941.503514 1392.61587,939.765358 1394.75579,939.765358 C1396.89572,939.765358 1398.63555,941.503514 1398.63555,943.643345" id="Fill-11"></path>
            <path d="M1235.76302,1389.61177 C1235.76302,1391.75161 1234.02603,1393.48976 1231.8851,1393.48976 C1229.74049,1393.48976 1228.00718,1391.75161 1228.00718,1389.61177 C1228.00718,1387.47194 1229.74049,1385.73379 1231.8851,1385.73379 C1234.02603,1385.73379 1235.76302,1387.47194 1235.76302,1389.61177" id="Fill-13"></path>
            <path d="M797.558348,1215.10239 C797.558348,1217.24222 795.821364,1218.98038 793.680431,1218.98038 C791.535825,1218.98038 789.802513,1217.24222 789.802513,1215.10239 C789.802513,1212.96256 791.535825,1211.2244 793.680431,1211.2244 C795.821364,1211.2244 797.558348,1212.96256 797.558348,1215.10239" id="Fill-15"></path>
            <path d="M572.639138,1344.3686 C572.639138,1346.50843 570.902154,1348.24659 568.761221,1348.24659 C566.616615,1348.24659 564.883303,1346.50843 564.883303,1344.3686 C564.883303,1342.22877 566.616615,1340.49061 568.761221,1340.49061 C570.902154,1340.49061 572.639138,1342.22877 572.639138,1344.3686" id="Fill-17"></path>
            <path d="M689.088,1511.33953 C689.088,1513.35953 687.457551,1515.00034 685.447928,1515.00034 C683.434858,1515.00034 681.804409,1513.35953 681.804409,1511.33953 C681.804409,1509.31953 683.434858,1507.67871 685.447928,1507.67871 C687.457551,1507.67871 689.088,1509.31953 689.088,1511.33953" id="Fill-19"></path>
            <path d="M1096.15799,1458.12287 C1096.15799,1460.2627 1094.42101,1462.00085 1092.2764,1462.00085 C1090.13547,1462.00085 1088.40215,1460.2627 1088.40215,1458.12287 C1088.40215,1455.98304 1090.13547,1454.24488 1092.2764,1454.24488 C1094.42101,1454.24488 1096.15799,1455.98304 1096.15799,1458.12287" id="Fill-22"></path>
            <path d="M1062.54937,1361.17321 C1062.54937,1363.31304 1060.81239,1365.05119 1058.66778,1365.05119 C1056.52685,1365.05119 1054.79354,1363.31304 1054.79354,1361.17321 C1054.79354,1359.03338 1056.52685,1357.29522 1058.66778,1357.29522 C1060.81239,1357.29522 1062.54937,1359.03338 1062.54937,1361.17321" id="Fill-24"></path>
            <path d="M356.768402,1344.3686 C356.768402,1346.50843 355.03224,1348.24659 352.888649,1348.24659 C350.748729,1348.24659 349.012567,1346.50843 349.012567,1344.3686 C349.012567,1342.22877 350.748729,1340.49061 352.888649,1340.49061 C355.03224,1340.49061 356.768402,1342.22877 356.768402,1344.3686" id="Fill-26"></path>
            <path d="M182.262118,1169.85922 C182.262118,1171.99905 180.525957,1173.7372 178.386036,1173.7372 C176.242445,1173.7372 174.506284,1171.99905 174.506284,1169.85922 C174.506284,1167.71938 176.242445,1165.98123 178.386036,1165.98123 C180.525957,1165.98123 182.262118,1167.71938 182.262118,1169.85922" id="Fill-28"></path>
            <path d="M7.75583483,655.379693 C7.75583483,657.519523 6.01885099,659.257679 3.87791741,659.257679 C1.73331157,659.257679 0,657.519523 0,655.379693 C0,653.239862 1.73331157,651.501706 3.87791741,651.501706 C6.01885099,651.501706 7.75583483,653.239862 7.75583483,655.379693" id="Fill-30"></path>
            <path d="M138.312388,201.65529 C138.312388,203.795121 136.576226,205.533276 134.436306,205.533276 C132.292715,205.533276 130.556553,203.795121 130.556553,201.65529 C130.556553,199.51546 132.292715,197.777304 134.436306,197.777304 C136.576226,197.777304 138.312388,199.51546 138.312388,201.65529" id="Fill-32"></path>
            <path d="M511.885099,276.629693 C511.885099,278.769523 510.148937,280.507679 508.009017,280.507679 C505.865426,280.507679 504.129264,278.769523 504.129264,276.629693 C504.129264,274.489862 505.865426,272.751706 508.009017,272.751706 C510.148937,272.751706 511.885099,274.489862 511.885099,276.629693" id="Fill-34"></path>
            <path d="M667.001795,223.630546 C667.001795,225.770377 665.265634,227.508532 663.122043,227.508532 C660.982122,227.508532 659.245961,225.770377 659.245961,223.630546 C659.245961,221.490716 660.982122,219.75256 663.122043,219.75256 C665.265634,219.75256 667.001795,221.490716 667.001795,223.630546" id="Fill-36"></path>
            <path d="M713.536804,263.703072 C713.536804,265.842902 711.800643,267.581058 709.660722,267.581058 C707.517131,267.581058 705.780969,265.842902 705.780969,263.703072 C705.780969,261.563241 707.517131,259.825085 709.660722,259.825085 C711.800643,259.825085 713.536804,261.563241 713.536804,263.703072" id="Fill-38"></path>
            <path d="M1160.78995,239.142491 C1160.78995,241.282322 1159.05296,243.020478 1156.91203,243.020478 C1154.76742,243.020478 1153.03411,241.282322 1153.03411,239.142491 C1153.03411,237.002661 1154.76742,235.264505 1156.91203,235.264505 C1159.05296,235.264505 1160.78995,237.002661 1160.78995,239.142491" id="Fill-40"></path>
            <path d="M1116.84022,152.53413 C1116.84022,154.67396 1115.10038,156.412116 1112.96046,156.412116 C1110.82054,156.412116 1109.08438,154.67396 1109.08438,152.53413 C1109.08438,150.394299 1110.82054,148.656143 1112.96046,148.656143 C1115.10038,148.656143 1116.84022,150.394299 1116.84022,152.53413" id="Fill-42"></path>
            <path d="M1297.80969,184.850683 C1297.80969,186.990513 1296.07271,188.728669 1293.92811,188.728669 C1291.78717,188.728669 1290.05386,186.990513 1290.05386,184.850683 C1290.05386,182.710852 1291.78717,180.972696 1293.92811,180.972696 C1296.07271,180.972696 1297.80969,182.710852 1297.80969,184.850683" id="Fill-44"></path>
            <path d="M1398.63555,276.629693 C1398.63555,278.769523 1396.89572,280.507679 1394.75579,280.507679 C1392.61587,280.507679 1390.87971,278.769523 1390.87971,276.629693 C1390.87971,274.489862 1392.61587,272.751706 1394.75579,272.751706 C1396.89572,272.751706 1398.63555,274.489862 1398.63555,276.629693" id="Fill-46"></path>
            <path d="M827.289048,20.6825939 C827.289048,22.8224244 825.552887,24.5605802 823.412966,24.5605802 C821.269375,24.5605802 819.533214,22.8224244 819.533214,20.6825939 C819.533214,18.5427633 821.269375,16.8046075 823.412966,16.8046075 C825.552887,16.8046075 827.289048,18.5427633 827.289048,20.6825939" id="Fill-48"></path>
            <path d="M590.736086,3.87798635 C590.736086,6.01781686 588.999924,7.7559727 586.856333,7.7559727 C584.716413,7.7559727 582.980251,6.01781686 582.980251,3.87798635 C582.980251,1.73815584 584.716413,0 586.856333,0 C588.999924,0 590.736086,1.73815584 590.736086,3.87798635" id="Fill-50"></path>
            <path d="M1439.31028,393.647328 C1439.31028,395.667328 1437.62532,397.308147 1435.5529,397.308147 C1433.48048,397.308147 1431.79908,395.667328 1431.79908,393.647328 C1431.79908,391.627328 1433.48048,389.986509 1435.5529,389.986509 C1437.62532,389.986509 1439.31028,391.627328 1439.31028,393.647328" id="Fill-52"></path>
            <path d="M880.287253,1059.98294 C880.287253,1062.12277 878.550269,1063.86092 876.409336,1063.86092 C874.26473,1063.86092 872.531418,1062.12277 872.531418,1059.98294 C872.531418,1057.8431 874.26473,1056.10495 876.409336,1056.10495 C878.550269,1056.10495 880.287253,1057.8431 880.287253,1059.98294" id="Fill-55"></path>
            <path d="M937.163375,1093.59215 C937.163375,1095.73198 935.426391,1097.47014 933.285458,1097.47014 C931.140852,1097.47014 929.40754,1095.73198 929.40754,1093.59215 C929.40754,1091.45232 931.140852,1089.71416 933.285458,1089.71416 C935.426391,1089.71416 937.163375,1091.45232 937.163375,1093.59215" id="Fill-57"></path>
            <path d="M614.003591,1107.81143 C614.003591,1109.95126 612.266607,1111.68942 610.125673,1111.68942 C607.981067,1111.68942 606.247756,1109.95126 606.247756,1107.81143 C606.247756,1105.6716 607.981067,1103.93345 610.125673,1103.93345 C612.266607,1103.93345 614.003591,1105.6716 614.003591,1107.81143" id="Fill-59"></path>
            <path d="M320.574506,1067.73891 C320.574506,1069.87874 318.838344,1071.61689 316.694754,1071.61689 C314.554833,1071.61689 312.818671,1069.87874 312.818671,1067.73891 C312.818671,1065.59908 314.554833,1063.86092 316.694754,1063.86092 C318.838344,1063.86092 320.574506,1065.59908 320.574506,1067.73891" id="Fill-61"></path>
            <path d="M515.763016,929.424061 C515.763016,931.563892 514.026032,933.302048 511.885099,933.302048 C509.740493,933.302048 508.007181,931.563892 508.007181,929.424061 C508.007181,927.284231 509.740493,925.546075 511.885099,925.546075 C514.026032,925.546075 515.763016,927.284231 515.763016,929.424061" id="Fill-63"></path>
            <path d="M714.829443,566.186007 C714.829443,568.325837 713.093282,570.063993 710.949691,570.063993 C708.80977,570.063993 707.073609,568.325837 707.073609,566.186007 C707.073609,564.046176 708.80977,562.30802 710.949691,562.30802 C713.093282,562.30802 714.829443,564.046176 714.829443,566.186007" id="Fill-65"></path>
            <path d="M1019.89228,814.377133 C1019.89228,816.516964 1018.15245,818.255119 1016.01253,818.255119 C1013.87261,818.255119 1012.13645,816.516964 1012.13645,814.377133 C1012.13645,812.237303 1013.87261,810.499147 1016.01253,810.499147 C1018.15245,810.499147 1019.89228,812.237303 1019.89228,814.377133" id="Fill-67"></path>
            <path d="M1101.32855,1089.71416 C1101.32855,1091.85399 1099.59156,1093.59215 1097.44696,1093.59215 C1095.30602,1093.59215 1093.57271,1091.85399 1093.57271,1089.71416 C1093.57271,1087.57433 1095.30602,1085.83618 1097.44696,1085.83618 C1099.59156,1085.83618 1101.32855,1087.57433 1101.32855,1089.71416" id="Fill-69"></path>
            <path d="M862.190305,762.670648 C862.190305,764.810479 860.454143,766.548635 858.310553,766.548635 C856.170632,766.548635 854.43447,764.810479 854.43447,762.670648 C854.43447,760.530818 856.170632,758.792662 858.310553,758.792662 C860.454143,758.792662 862.190305,760.530818 862.190305,762.670648" id="Fill-71"></path>
            <path d="M1027.64811,558.430034 C1027.64811,560.569865 1025.91113,562.30802 1023.76653,562.30802 C1021.62559,562.30802 1019.89228,560.569865 1019.89228,558.430034 C1019.89228,556.290204 1021.62559,554.552048 1023.76653,554.552048 C1025.91113,554.552048 1027.64811,556.290204 1027.64811,558.430034" id="Fill-73"></path>
            <path d="M1305.56553,880.302901 C1305.56553,882.442732 1303.82855,884.180887 1301.68761,884.180887 C1299.54301,884.180887 1297.80969,882.442732 1297.80969,880.302901 C1297.80969,878.163071 1299.54301,876.424915 1301.68761,876.424915 C1303.82855,876.424915 1305.56553,878.163071 1305.56553,880.302901" id="Fill-75"></path>
            <path d="M1242.22621,925.546075 C1242.22621,927.685906 1240.48923,929.424061 1238.34829,929.424061 C1236.20369,929.424061 1234.47038,927.685906 1234.47038,925.546075 C1234.47038,923.406245 1236.20369,921.668089 1238.34829,921.668089 C1240.48923,921.668089 1242.22621,923.406245 1242.22621,925.546075" id="Fill-77"></path>
            <path d="M1281.00539,546.796075 C1281.00539,548.935906 1279.2684,550.674061 1277.12747,550.674061 C1274.98286,550.674061 1273.24955,548.935906 1273.24955,546.796075 C1273.24955,544.656245 1274.98286,542.918089 1277.12747,542.918089 C1279.2684,542.918089 1281.00539,544.656245 1281.00539,546.796075" id="Fill-79"></path>
            <path d="M360.64632,738.110068 C360.64632,740.249899 358.909336,741.988055 356.768402,741.988055 C354.623796,741.988055 352.890485,740.249899 352.890485,738.110068 C352.890485,735.970238 354.623796,734.232082 356.768402,734.232082 C358.909336,734.232082 360.64632,735.970238 360.64632,738.110068" id="Fill-81"></path>
            <path d="M387.791741,373.579352 C387.791741,375.719182 386.05558,377.457338 383.915659,377.457338 C381.772068,377.457338 380.035907,375.719182 380.035907,373.579352 C380.035907,371.439521 381.772068,369.701365 383.915659,369.701365 C386.05558,369.701365 387.791741,371.439521 387.791741,373.579352" id="Fill-83"></path>
            <path d="M302.477558,999.227816 C302.477558,1001.36765 300.741397,1003.1058 298.601476,1003.1058 C296.457885,1003.1058 294.721724,1001.36765 294.721724,999.227816 C294.721724,997.087985 296.457885,995.349829 298.601476,995.349829 C300.741397,995.349829 302.477558,997.087985 302.477558,999.227816" id="Fill-85"></path>
            <path d="M629.51526,546.796075 C629.51526,548.935906 627.778276,550.674061 625.637343,550.674061 C623.492737,550.674061 621.759425,548.935906 621.759425,546.796075 C621.759425,544.656245 623.492737,542.918089 625.637343,542.918089 C627.778276,542.918089 629.51526,544.656245 629.51526,546.796075" id="Fill-87"></path>
            <path d="M688.976661,748.451365 C688.976661,750.591196 687.240499,752.329352 685.096908,752.329352 C682.956988,752.329352 681.220826,750.591196 681.220826,748.451365 C681.220826,746.311535 682.956988,744.573379 685.096908,744.573379 C687.240499,744.573379 688.976661,746.311535 688.976661,748.451365" id="Fill-89"></path>
            <path d="M1222.83662,453.724403 C1222.83662,455.864233 1221.09964,457.602389 1218.95871,457.602389 C1216.8141,457.602389 1215.08079,455.864233 1215.08079,453.724403 C1215.08079,451.584572 1216.8141,449.846416 1218.95871,449.846416 C1221.09964,449.846416 1222.83662,451.584572 1222.83662,453.724403" id="Fill-91"></path>
            <path d="M891.921005,420.115188 C891.921005,422.255018 890.184844,423.993174 888.041253,423.993174 C885.901332,423.993174 884.165171,422.255018 884.165171,420.115188 C884.165171,417.975357 885.901332,416.237201 888.041253,416.237201 C890.184844,416.237201 891.921005,417.975357 891.921005,420.115188" id="Fill-93"></path>
            <path d="M1336.58887,1053.51962 C1336.58887,1055.65946 1334.84904,1057.39761 1332.70912,1057.39761 C1330.5692,1057.39761 1328.83303,1055.65946 1328.83303,1053.51962 C1328.83303,1051.37979 1330.5692,1049.64164 1332.70912,1049.64164 C1334.84904,1049.64164 1336.58887,1051.37979 1336.58887,1053.51962" id="Fill-95"></path>
            <path d="M1352.10054,457.602389 C1352.10054,459.74222 1350.36071,461.480375 1348.22079,461.480375 C1346.08087,461.480375 1344.3447,459.74222 1344.3447,457.602389 C1344.3447,455.462559 1346.08087,453.724403 1348.22079,453.724403 C1350.36071,453.724403 1352.10054,455.462559 1352.10054,457.602389" id="Fill-97"></path>
            <path d="M249.479354,586.868601 C249.479354,589.008431 247.74237,590.746587 245.601436,590.746587 C243.45683,590.746587 241.723519,589.008431 241.723519,586.868601 C241.723519,584.72877 243.45683,582.990614 245.601436,582.990614 C247.74237,582.990614 249.479354,584.72877 249.479354,586.868601" id="Fill-99"></path>
            <path d="M240.43088,903.570819 C240.43088,905.71065 238.694718,907.448805 236.551127,907.448805 C234.411207,907.448805 232.675045,905.71065 232.675045,903.570819 C232.675045,901.430989 234.411207,899.692833 236.551127,899.692833 C238.694718,899.692833 240.43088,901.430989 240.43088,903.570819" id="Fill-101"></path>
            <path d="M414.937163,1169.85922 C414.937163,1171.99905 413.20018,1173.7372 411.059246,1173.7372 C408.91464,1173.7372 407.181329,1171.99905 407.181329,1169.85922 C407.181329,1167.71938 408.91464,1165.98123 411.059246,1165.98123 C413.20018,1165.98123 414.937163,1167.71938 414.937163,1169.85922" id="Fill-103"></path>
            <path d="M1277.12747,1156.93259 C1277.12747,1159.07242 1275.38764,1160.81058 1273.24772,1160.81058 C1271.1078,1160.81058 1269.37163,1159.07242 1269.37163,1156.93259 C1269.37163,1154.79276 1271.1078,1153.05461 1273.24772,1153.05461 C1275.38764,1153.05461 1277.12747,1154.79276 1277.12747,1156.93259" id="Fill-105"></path>
        </g>
    </g>
</svg>