<?xml version="1.0" encoding="UTF-8" standalone="no"?>
<svg width="50px" height="11px" viewBox="0 0 50 11" version="1.1" xmlns="http://www.w3.org/2000/svg" xmlns:xlink="http://www.w3.org/1999/xlink">
    <!-- Generator: Sketch 47.1 (45422) - http://www.bohemiancoding.com/sketch -->
    <title>Page 1</title>
    <desc>Created with Sketch.</desc>
    <defs></defs>
    <g id="Page-1" stroke="none" stroke-width="1" fill="none" fill-rule="evenodd">
        <path d="M48.4375,11 C45.1802083,11 42.3052083,9.32066667 40.625,6.77809524 C38.9447917,9.32066667 36.0697917,11 32.8125,11 C29.5552083,11 26.6802083,9.32066667 25,6.77809524 C23.3197917,9.32066667 20.4447917,11 17.1875,11 C13.9302083,11 11.0552083,9.32066667 9.375,6.77809524 C7.69479167,9.32066667 4.81979167,11 1.5625,11 C0.7,11 0,10.2970476 0,9.42857143 C0,8.56009524 0.7,7.85714286 1.5625,7.85714286 C5.009375,7.85714286 7.8125,5.038 7.8125,1.57142857 C7.8125,0.702952381 8.5125,0 9.375,0 C10.2375,0 10.9375,0.702952381 10.9375,1.57142857 C10.9375,5.038 13.740625,7.85714286 17.1875,7.85714286 C20.634375,7.85714286 23.4375,5.038 23.4375,1.57142857 C23.4375,0.702952381 24.1375,0 25,0 C25.8625,0 26.5625,0.702952381 26.5625,1.57142857 C26.5625,5.038 29.365625,7.85714286 32.8125,7.85714286 C36.259375,7.85714286 39.0625,5.038 39.0625,1.57142857 C39.0625,0.702952381 39.7625,0 40.625,0 C41.4875,0 42.1875,0.702952381 42.1875,1.57142857 C42.1875,5.038 44.990625,7.85714286 48.4375,7.85714286 C49.3,7.85714286 50,8.56009524 50,9.42857143 C50,10.2970476 49.3,11 48.4375,11" fill="#00666B"></path>
    </g>
</svg>