<?xml version="1.0" encoding="UTF-8" standalone="no"?>
<svg width="720px" height="45px" viewBox="0 0 720 45" version="1.1" xmlns="http://www.w3.org/2000/svg" xmlns:xlink="http://www.w3.org/1999/xlink">
    <!-- Generator: Sketch 47.1 (45422) - http://www.bohemiancoding.com/sketch -->
    <title>Combined Shape Copy</title>
    <desc>Created with Sketch.</desc>
    <defs></defs>
    <g id="Page-1" stroke="none" stroke-width="1" fill="none" fill-rule="evenodd">
        <path d="M710.369759,16.4590625 C693.998928,16.4590625 693.998928,0 677.628097,0 C661.259196,0 661.259196,16.4590625 644.890295,16.4590625 C628.527185,16.4590625 628.527185,0 612.162145,0 C595.795174,0 595.795174,16.4590625 579.424343,16.4590625 C563.059303,16.4590625 563.059303,0 546.692332,0 C530.327292,0 530.327292,16.4590625 513.960322,16.4590625 C497.589491,16.4590625 497.589491,0 481.214799,0 C464.843968,0 464.843968,16.4590625 448.471206,16.4590625 C432.100375,16.4590625 432.100375,0 415.731475,0 C399.360643,0 399.360643,16.4590625 382.991743,16.4590625 C366.628633,16.4590625 366.628633,0 350.263592,0 C333.896622,0 333.896622,16.4590625 317.527721,16.4590625 C301.160751,16.4590625 301.160751,0 284.79571,0 C268.42874,0 268.42874,16.4590625 252.0637,16.4590625 C235.690938,16.4590625 235.690938,0 219.318177,0 C202.945416,0 202.945416,16.4590625 186.572654,16.4590625 C170.201823,16.4590625 170.201823,0 153.830992,0 C137.462091,0 137.462091,16.4590625 121.09319,16.4590625 C104.72815,16.4590625 104.72815,0 88.3650402,0 C71.9961394,0 71.9961394,16.4590625 55.6272386,16.4590625 C39.2621984,16.4590625 39.2621984,0 22.8952279,0 C10.6880429,0 7.5802681,9.15275 0,13.806625 L0,45 L720,45 L720,13.9482455 C717.45871,15.4573864 714.4125,16.4590625 710.369759,16.4590625 Z" id="Combined-Shape-Copy" fill="#007780"></path>
    </g>
</svg>